<?xml version="1.0" encoding="utf-8"?><svg xmlns="http://www.w3.org/2000/svg" xmlns:xlink="http://www.w3.org/1999/xlink"><symbol viewBox="0 0 320 512" id="down" xmlns="http://www.w3.org/2000/svg"><!--!Font Awesome Free 6.7.1 by @fontawesome - https://fontawesome.com License - https://fontawesome.com/license/free Copyright 2024 Fonticons, Inc.--><path d="M2 334.5c-3.8 8.8-2 19 4.6 26l136 144c4.5 4.8 10.8 7.5 17.4 7.5s12.9-2.7 17.4-7.5l136-144c6.6-7 8.4-17.2 4.6-26S305.5 320 296 320h-72V32c0-17.7-14.3-32-32-32h-64c-17.7 0-32 14.3-32 32v288H24c-9.6 0-18.2 5.7-22 14.5z"/></symbol><symbol fill="none" viewBox="0 0 31.914 61" id="left" xmlns="http://www.w3.org/2000/svg"><path d="M.67 32.17L28 60.31c.9.92 2.35.92 3.24-.01.89-.92.89-2.42-.01-3.34L5.53 30.49 31.24 4.03c.89-.92.89-2.42 0-3.34C30.79.23 30.2 0 29.62 0c-.59 0-1.17.23-1.62.69L.67 28.82c-.43.44-.67 1.05-.67 1.67 0 .63.24 1.24.67 1.68z" fill="#FFF"/></symbol><symbol fill="none" viewBox="0 0 31.914 61" id="right" xmlns="http://www.w3.org/2000/svg"><path d="M31.24 28.82L3.9.68C3.01-.24 1.56-.23.66.69c-.89.92-.89 2.42.01 3.34l25.7 26.47L.67 56.96c-.9.92-.9 2.42-.01 3.34.45.46 1.04.7 1.63.7.58 0 1.17-.24 1.61-.7l27.34-28.13c.43-.44.67-1.05.67-1.67 0-.63-.24-1.24-.67-1.68z" fill="#FFF"/></symbol><symbol fill="#fff" viewBox="0 0 512 512" id="search-icon" xmlns="http://www.w3.org/2000/svg"><!--!Font Awesome Free 6.7.2 by @fontawesome - https://fontawesome.com License - https://fontawesome.com/license/free Copyright 2024 Fonticons, Inc.--><path d="M416 208c0 45.9-14.9 88.3-40 122.7l126.6 126.7c12.5 12.5 12.5 32.8 0 45.3s-32.8 12.5-45.3 0L330.7 376c-34.4 25.2-76.8 40-122.7 40C93.1 416 0 322.9 0 208S93.1 0 208 0s208 93.1 208 208zM208 352a144 144 0 100-288 144 144 0 100 288z"/></symbol><symbol fill="none" viewBox="0 0 13.836 13.834" id="star-empty" xmlns="http://www.w3.org/2000/svg"><path d="M7.53.67l1.38 3.82c.1.25.34.42.62.42h3.39c.63 0 .9.78.41 1.16l-2.42 2.18a.6.6 0 00-.22.32.61.61 0 00.01.4l.88 3.74c.21.6-.48 1.11-1.01.74L7.3 11.37a.776.776 0 00-.39-.12c-.13 0-.27.05-.38.12l-3.28 2.08c-.52.37-1.22-.14-1-.74l.88-3.74a.618.618 0 00-.22-.72L.5 6.07C.01 5.69.28 4.91.91 4.91H4.3c.13 0 .26-.04.37-.11.11-.08.2-.19.24-.31L6.29.67h.01C6.51.1 7.32.1 7.53.67z" stroke="#C4CDD5" stroke-width=".5" stroke-linejoin="round"/></symbol><symbol fill="none" viewBox="0 0 13.334 13.334" id="star-pull" xmlns="http://www.w3.org/2000/svg"><path d="M6.04.42c.22-.57 1.03-.57 1.24 0l1.38 3.82c.1.25.34.42.62.42h3.39c.62 0 .9.78.41 1.16L10.66 8c-.11.08-.19.19-.22.32a.61.61 0 00.01.4l.88 3.74c.21.6-.48 1.11-1.01.74l-3.27-2.08a.776.776 0 00-.39-.12c-.13 0-.27.05-.38.12L3 13.2c-.52.37-1.22-.14-1-.74l.88-3.74A.618.618 0 002.66 8L.25 5.82c-.49-.38-.22-1.16.41-1.16h3.39c.13 0 .26-.04.37-.11.11-.08.2-.19.24-.31L6.04.42z" fill="#F7AB3A"/></symbol></svg>