<svg width="13.835938" height="13.833588" viewBox="0 0 13.8359 13.8336" fill="none" xmlns="http://www.w3.org/2000/svg" xmlns:xlink="http://www.w3.org/1999/xlink">
	<desc>
			Created with Pixso.
	</desc>
	<defs/>
	<path id="Vector" d="M7.53 0.67L8.91 4.49C9.01 4.74 9.25 4.91 9.53 4.91L12.92 4.91C13.55 4.91 13.82 5.69 13.33 6.07L10.91 8.25C10.8 8.33 10.73 8.44 10.69 8.57C10.65 8.7 10.65 8.84 10.7 8.97L11.58 12.71C11.79 13.31 11.1 13.82 10.57 13.45L7.3 11.37C7.18 11.3 7.05 11.25 6.91 11.25C6.78 11.25 6.64 11.3 6.53 11.37L3.25 13.45C2.73 13.82 2.03 13.31 2.25 12.71L3.13 8.97C3.17 8.84 3.18 8.7 3.14 8.57C3.1 8.44 3.02 8.33 2.91 8.25L0.5 6.07C0.01 5.69 0.28 4.91 0.91 4.91L4.3 4.91C4.43 4.91 4.56 4.87 4.67 4.8C4.78 4.72 4.87 4.61 4.91 4.49L6.29 0.67L6.3 0.67C6.51 0.1 7.32 0.1 7.53 0.67Z" stroke="#C4CDD5" stroke-opacity="1.000000" stroke-width="0.500000" stroke-linejoin="round"/>
</svg>
