<svg width="13.333984" height="13.333542" viewBox="0 0 13.334 13.3335" fill="none" xmlns="http://www.w3.org/2000/svg" xmlns:xlink="http://www.w3.org/1999/xlink">
	<desc>
			Created with Pixso.
	</desc>
	<defs/>
	<path id="Vector" d="M6.04 0.42C6.26 -0.15 7.07 -0.15 7.28 0.42L8.66 4.24C8.76 4.49 9 4.66 9.28 4.66L12.67 4.66C13.29 4.66 13.57 5.44 13.08 5.82L10.66 8C10.55 8.08 10.47 8.19 10.44 8.32C10.4 8.45 10.4 8.59 10.45 8.72L11.33 12.46C11.54 13.06 10.85 13.57 10.32 13.2L7.05 11.12C6.93 11.05 6.8 11 6.66 11C6.53 11 6.39 11.05 6.28 11.12L3 13.2C2.48 13.57 1.78 13.06 2 12.46L2.88 8.72C2.92 8.59 2.93 8.45 2.89 8.32C2.85 8.19 2.77 8.08 2.66 8L0.25 5.82C-0.24 5.44 0.03 4.66 0.66 4.66L4.05 4.66C4.18 4.66 4.31 4.62 4.42 4.55C4.53 4.47 4.62 4.36 4.66 4.24L6.04 0.42L6.04 0.42Z" fill="#F7AB3A" fill-opacity="1.000000" fill-rule="nonzero"/>
</svg>
