<svg width="35" height="32" viewBox="0 0 35 32" fill="none" xmlns="http://www.w3.org/2000/svg">
<g clip-path="url(#clip0_212_241)">
<path d="M7.30767 0.25212C7.10943 0.439595 7.10943 0.44606 7.10943 1.22182V2.00404H3.88286C0.943412 2.00404 0.628959 2.01697 0.410209 2.1204C0.0479041 2.28848 -0.00678339 2.52768 0.0752479 3.50384C0.198295 4.93899 0.499076 6.01859 1.12798 7.27919C2.6524 10.337 5.48931 12.3798 8.96197 12.9228L9.63189 13.0263L10.001 13.705C11.3614 16.2133 13.1114 18.017 14.9571 18.8121C15.1485 18.8962 15.3126 18.9737 15.3126 18.9931C15.3126 19.0061 15.1417 19.1935 14.9366 19.4133C13.6309 20.7709 13.7061 22.7103 15.1075 24.042L15.5586 24.4687L15.5108 25.2444C15.4629 26.1172 15.2989 26.6214 14.8819 27.2291C14.1436 28.2893 13.1319 28.8517 11.6622 29.0198C11.2247 29.0715 11.0879 29.1103 10.9444 29.2461C10.7735 29.4141 10.7667 29.44 10.7461 30.3968C10.7188 31.5087 10.7393 31.6315 10.9854 31.8448L11.1631 32H17.5001H23.837L24.0147 31.8448C24.2608 31.6315 24.2813 31.5087 24.254 30.3903L24.2335 29.4012L24.0079 29.2137C23.837 29.0715 23.7208 29.0263 23.4952 29.0263C22.709 29.0198 21.6905 28.6707 21.0479 28.1859C19.9952 27.3842 19.503 26.421 19.4756 25.1281L19.4688 24.4364L19.9063 24.0291C21.3008 22.7168 21.3624 20.7321 20.0499 19.3875C19.8379 19.1741 19.6807 18.9931 19.6944 18.9802C19.7081 18.9673 19.9405 18.8574 20.2139 18.7281C22.046 17.8747 23.6524 16.1875 25.0196 13.6727L25.3682 13.0263L26.0381 12.9228C28.1983 12.5867 29.9688 11.7527 31.5752 10.3111C33.5303 8.55919 34.7198 6.14141 34.9317 3.47798C35.0069 2.52768 34.9454 2.28202 34.5899 2.1204C34.3711 2.01697 34.0567 2.00404 31.1241 2.00404H27.8907V1.22182C27.8907 0.44606 27.8907 0.439595 27.6924 0.25212L27.4942 0.0646455H17.5001H7.50591L7.30767 0.25212ZM26.462 2.03636C26.4551 2.39192 26.4073 3.15475 26.3526 3.72364C25.8467 9.03758 24.1036 13.537 21.5606 16.0905C20.9249 16.7305 20.419 17.1055 19.7422 17.4481C18.293 18.1851 16.8165 18.2044 15.3536 17.5063C12.3116 16.0517 9.73443 11.2873 8.85259 5.46909C8.66119 4.19555 8.49029 1.97172 8.53814 1.40283C8.54497 1.37697 12.5782 1.36404 17.5069 1.3705L26.4756 1.3899L26.462 2.03636ZM3.04204 3.79475C3.32915 6.50343 4.79888 9.13454 6.96587 10.8154C7.08892 10.9123 7.17779 11.0093 7.15728 11.0287C7.13677 11.0481 6.87701 10.9446 6.58306 10.8024C3.80083 9.48364 1.90044 6.85252 1.51763 3.79475L1.46294 3.36162H2.22857H2.99419L3.04204 3.79475ZM7.20513 3.63313C7.22564 3.78828 7.27349 4.20202 7.31451 4.55757C7.49224 6.12848 7.84771 7.94505 8.27154 9.38667C8.38775 9.78101 8.46294 10.1172 8.44927 10.1366C8.35357 10.2206 7.13677 9.19919 6.61724 8.59798C5.4688 7.27273 4.63482 5.41737 4.47076 3.82707L4.4229 3.36162H5.79693H7.17095L7.20513 3.63313ZM30.5293 3.82707C30.3243 5.81818 29.0801 8.15192 27.5352 9.43838C26.9678 9.9103 26.5987 10.1754 26.5508 10.1366C26.5372 10.1172 26.6124 9.78747 26.7217 9.3996C27.1524 7.95151 27.5284 6.06384 27.6788 4.5899C27.7198 4.21495 27.7745 3.78828 27.795 3.63313L27.8292 3.36162H29.2032H30.5772L30.5293 3.82707ZM33.4825 3.79475C33.2159 5.90869 32.2793 7.75111 30.7276 9.21212C29.9825 9.91677 29.3262 10.3758 28.4512 10.796C27.8428 11.0933 27.6651 11.0998 28.0342 10.8154C28.4581 10.4921 29.3672 9.60646 29.6885 9.19919C30.9327 7.64768 31.671 5.91515 31.9239 3.98869L32.0059 3.36162H32.7715H33.5372L33.4825 3.79475ZM18.1836 19.7818C18.6143 19.8982 19.086 20.299 19.3321 20.758C19.879 21.7729 19.4278 22.956 18.3135 23.4279C17.9512 23.583 17.8282 23.6089 17.4043 23.583C15.4288 23.4861 14.7042 21.0812 16.3243 20.0275C16.878 19.6655 17.4727 19.5879 18.1836 19.7818ZM18.0674 25.516C18.2315 27.7657 19.92 29.6598 22.2374 30.2028C22.8116 30.3321 22.8321 30.3451 22.8321 30.5261V30.7071H17.5001H12.168V30.5261C12.168 30.3451 12.1885 30.3321 12.7627 30.1964C15.0938 29.6404 16.7686 27.7657 16.9327 25.5224L16.9737 24.96L17.459 24.9406C17.7256 24.9277 17.9649 24.9277 17.9854 24.9341C18.0059 24.9406 18.0469 25.2057 18.0674 25.516Z" fill="white"/>
</g>
<defs>
<clipPath id="clip0_212_241">
<rect width="35" height="32" fill="white"/>
</clipPath>
</defs>
</svg>
