<svg width="32" height="28" viewBox="0 0 32 28" fill="none" xmlns="http://www.w3.org/2000/svg">
<path d="M25.2017 9.20073C25.2017 13.0188 21.3988 16.4568 16.2443 16.4568C11.0898 16.4568 7.28696 13.0188 7.28696 9.20073C7.28696 5.38262 11.0898 1.94462 16.2443 1.94462C21.3988 1.94462 25.2017 5.38262 25.2017 9.20073Z" stroke="white" stroke-width="2.3"/>
<path d="M1.99997 27.7686C1.99997 26.2231 2.36597 24.6928 3.07709 23.2649C3.78821 21.8371 4.83051 20.5397 6.14449 19.4469C7.45847 18.3541 9.01838 17.4873 10.7352 16.8958C12.452 16.3044 14.292 16 16.1503 16C18.0085 16 19.8485 16.3044 21.5653 16.8958C23.2821 17.4873 24.842 18.3541 26.156 19.4469C27.47 20.5397 28.5123 21.8371 29.2234 23.2649C29.9345 24.6928 30.3005 26.2231 30.3005 27.7686" stroke="white" stroke-width="2.3"/>
</svg>
